<svg id="apple" xmlns="http://www.w3.org/2000/svg" width="28.887" height="33.819" viewBox="0 0 28.887 33.819">
  <g id="Group_39153" data-name="Group 39153" transform="translate(13.883)">
    <g id="Group_39152" data-name="Group 39152">
      <path id="Path_94877" data-name="Path 94877" d="M254.421,0a7.936,7.936,0,0,0-5.138,2.782A6.893,6.893,0,0,0,247.6,8.138a6.7,6.7,0,0,0,5.185-2.648A7.441,7.441,0,0,0,254.421,0Z" transform="translate(-247.522)" fill="#ededed"/>
    </g>
  </g>
  <g id="Group_39155" data-name="Group 39155" transform="translate(0 7.916)">
    <g id="Group_39154" data-name="Group 39154">
      <path id="Path_94878" data-name="Path 94878" d="M65.244,123.27a8.561,8.561,0,0,0-6.462-3.43c-3.033,0-4.316,1.452-6.423,1.452-2.173,0-3.824-1.448-6.447-1.448a8.772,8.772,0,0,0-7.06,4.268c-2.446,3.792-2.027,10.921,1.936,16.994,1.418,2.173,3.312,4.616,5.789,4.637,2.2.021,2.826-1.414,5.813-1.429s3.553,1.448,5.753,1.425c2.479-.019,4.477-2.727,5.9-4.9a24.368,24.368,0,0,0,2.183-4.1A7.456,7.456,0,0,1,65.244,123.27Z" transform="translate(-37.336 -119.84)" fill="#ededed"/>
    </g>
  </g>
</svg>
