<svg id="flaticon" xmlns="http://www.w3.org/2000/svg" width="32.074" height="28.687" viewBox="0 0 32.074 28.687">
  <path id="Path_94885" data-name="Path 94885" d="M152.567,157.972h-7.289l-2.284-3.957h11.857L158.316,148h-19.6a3.532,3.532,0,0,0-3.041,5.3l12.494,21.656a3.538,3.538,0,0,0,4.833,1.248,3.41,3.41,0,0,0,1.248-1.248l.4-.717-5.749-9.972Z" transform="translate(-135.2 -148)" fill="#ededed"/>
  <path id="Path_94886" data-name="Path 94886" d="M286.3,149.766A3.508,3.508,0,0,0,283.264,148H282.4L273,164.252l3.439,6.015,9.825-17.009A3.338,3.338,0,0,0,286.3,149.766Z" transform="translate(-254.703 -148)" fill="#ededed"/>
</svg>
