<svg xmlns="http://www.w3.org/2000/svg" xmlns:xlink="http://www.w3.org/1999/xlink" width="292.53" height="58" viewBox="0 0 292.53 58">
  <defs>
    <linearGradient id="linear-gradient" x1="0.5" x2="0.5" y2="1" gradientUnits="objectBoundingBox">
      <stop offset="0" stop-color="#ff6300"/>
      <stop offset="1" stop-color="#9a4ca8"/>
    </linearGradient>
    <linearGradient id="linear-gradient-3" x1="-0.381" y1="-2.279" x2="0.793" y2="2.554" xlink:href="#linear-gradient"/>
  </defs>
  <g id="logo" transform="translate(-165 -62)">
    <g id="Group_23421" data-name="Group 23421" transform="translate(164.592 61.592)">
      <g id="Group_39147" data-name="Group 39147" transform="translate(0)">
        <circle id="Ellipse_3946" data-name="Ellipse 3946" cx="29" cy="29" r="29" transform="translate(0.408 0.408)" fill="url(#linear-gradient)"/>
        <g id="Ellipse_3947" data-name="Ellipse 3947" transform="translate(8.714 8.714)" fill="#141414">
          <path d="M 20.69466209411621 39.38932037353516 C 15.70114231109619 39.38932037353516 11.00650215148926 37.44474029541016 7.475542068481445 33.91378021240234 C 3.944581985473633 30.38283157348633 2.000002145767212 25.68819236755371 2.000002145767212 20.69466209411621 C 2.000002145767212 15.70114231109619 3.944581985473633 11.00650215148926 7.475542068481445 7.475542068481445 C 11.00650215148926 3.944581985473633 15.70114231109619 2.000002145767212 20.69466209411621 2.000002145767212 C 25.68819236755371 2.000002145767212 30.38283157348633 3.944581985473633 33.91378021240234 7.475542068481445 C 37.44474029541016 11.00650215148926 39.38932037353516 15.70114231109619 39.38932037353516 20.69466209411621 C 39.38932037353516 25.68819236755371 37.44474029541016 30.38283157348633 33.91378021240234 33.91378021240234 C 30.38283157348633 37.44474029541016 25.68819236755371 39.38932037353516 20.69466209411621 39.38932037353516 Z" stroke="none"/>
          <path d="M 20.69466209411621 37.38932037353516 C 25.15397262573242 37.38932037353516 29.34637260437012 35.65277099609375 32.49957275390625 32.49957275390625 C 35.65277099609375 29.34637260437012 37.38932037353516 25.15397262573242 37.38932037353516 20.69466209411621 C 37.38932037353516 16.2353630065918 35.65277099609375 12.04296207427979 32.49957275390625 8.889752388000488 C 29.34636116027832 5.736552238464355 25.15397262573242 4.000001907348633 20.69466209411621 4.000001907348633 C 16.2353630065918 4.000001907348633 12.04296207427979 5.736552238464355 8.889752388000488 8.889752388000488 C 5.736552238464355 12.04296207427979 4.000001907348633 16.2353630065918 4.000001907348633 20.69466209411621 C 4.000001907348633 25.15397262573242 5.736552238464355 29.34636116027832 8.889752388000488 32.49957275390625 C 12.04296207427979 35.65277099609375 16.2353630065918 37.38932037353516 20.69466209411621 37.38932037353516 M 20.69466209411621 41.38932037353516 C 9.265321731567383 41.38932037353516 2.094116098305676e-06 32.1240119934082 2.094116098305676e-06 20.69466209411621 C 2.094116098305676e-06 9.265321731567383 9.265321731567383 2.094116098305676e-06 20.69466209411621 2.094116098305676e-06 C 32.1240119934082 2.094116098305676e-06 41.38932037353516 9.265321731567383 41.38932037353516 20.69466209411621 C 41.38932037353516 32.1240119934082 32.1240119934082 41.38932037353516 20.69466209411621 41.38932037353516 Z" stroke="none" fill="#141414"/>
        </g>
      </g>
    </g>
    <path id="Path_94127" data-name="Path 94127" d="M6.38-11.418A7.513,7.513,0,0,1,8.54-16.909a7.108,7.108,0,0,1,5.275-2.221,6.375,6.375,0,0,1,4.2,1.3,7.007,7.007,0,0,1,2.283,2.962L24.7-17.032a10.43,10.43,0,0,0-3.794-4.72,11.532,11.532,0,0,0-7.034-2.1,12.294,12.294,0,0,0-8.915,3.609A11.991,11.991,0,0,0,1.29-11.387,12.319,12.319,0,0,0,4.776-2.533a12.178,12.178,0,0,0,9.039,3.579,10.954,10.954,0,0,0,9.779-5.183,11.688,11.688,0,0,0,1.666-6.293v-1.882H12.7v4.535h7.342c-.617,2.437-3.023,4.072-6.232,4.072A6.924,6.924,0,0,1,8.478-5.957,7.8,7.8,0,0,1,6.38-11.418Z" transform="translate(180.73 102.869)" fill="url(#linear-gradient)"/>
    <path id="Path_94126" data-name="Path 94126" d="M6.24-11.76a7.306,7.306,0,0,1,2.1-5.34,6.913,6.913,0,0,1,5.13-2.16A6.2,6.2,0,0,1,17.55-18a6.814,6.814,0,0,1,2.22,2.88l4.29-2.1a10.143,10.143,0,0,0-3.69-4.59,11.215,11.215,0,0,0-6.84-2.04,11.955,11.955,0,0,0-8.67,3.51,11.661,11.661,0,0,0-3.57,8.61A11.98,11.98,0,0,0,4.68-3.12,11.843,11.843,0,0,0,13.47.36a10.653,10.653,0,0,0,9.51-5.04A11.366,11.366,0,0,0,24.6-10.8v-1.83H12.39v4.41h7.14c-.6,2.37-2.94,3.96-6.06,3.96A6.733,6.733,0,0,1,8.28-6.45,7.587,7.587,0,0,1,6.24-11.76ZM32.82-24.45H28.11V0h4.71ZM36.39-7.98a7.863,7.863,0,0,0,2.52,5.97A8.679,8.679,0,0,0,45.12.36a8.8,8.8,0,0,0,6.21-2.4,7.957,7.957,0,0,0,2.55-6.03,7.779,7.779,0,0,0-2.52-5.91,8.682,8.682,0,0,0-6.18-2.4,8.772,8.772,0,0,0-6.24,2.43A7.829,7.829,0,0,0,36.39-7.98Zm4.8-.06a3.98,3.98,0,0,1,1.14-2.91,3.715,3.715,0,0,1,2.79-1.17,3.78,3.78,0,0,1,2.82,1.17,3.98,3.98,0,0,1,1.14,2.91,3.9,3.9,0,0,1-3.93,4.11,3.87,3.87,0,0,1-2.82-1.14A4.122,4.122,0,0,1,41.19-8.04ZM62.13-24.42H57.45V0h4.56V-1.92h.06A5.725,5.725,0,0,0,66.93.3a7.034,7.034,0,0,0,5.55-2.52,8.633,8.633,0,0,0,2.19-5.82,8.722,8.722,0,0,0-2.13-5.76,6.831,6.831,0,0,0-5.49-2.52,5.878,5.878,0,0,0-4.86,2.22h-.06ZM62.01-8.04a3.98,3.98,0,0,1,1.14-2.91,3.8,3.8,0,0,1,2.79-1.14,3.87,3.87,0,0,1,2.82,1.14,3.888,3.888,0,0,1,1.17,2.91,4.122,4.122,0,0,1-1.14,2.97,3.87,3.87,0,0,1-2.82,1.14,3.87,3.87,0,0,1-2.82-1.14A4.122,4.122,0,0,1,62.01-8.04ZM82.77.3a5.494,5.494,0,0,0,4.8-2.31l.06.03V0h4.32V-9.93c0-4.2-2.73-6.45-6.96-6.45-3.51,0-5.97,1.26-7.35,3.81l3.57,2.13a3.854,3.854,0,0,1,3.57-2.16c1.68,0,2.58.87,2.58,1.98q0,1.17-1.26,1.17H84.51a10.772,10.772,0,0,0-4.77.96,4.174,4.174,0,0,0-2.37,3.96v.06A4.292,4.292,0,0,0,78.93-.99,5.828,5.828,0,0,0,82.77.3Zm1.35-3.42c-1.2,0-2.04-.54-2.04-1.62,0-1.2,1.08-1.83,2.43-1.83h2.82v.36A2.977,2.977,0,0,1,84.12-3.12Zm16.95-21.33H96.36V0h4.71ZM115.38,0l1.74-4.74h10.41L129.3,0h5.01l-9-23.49h-5.85L110.49,0Zm6.96-18.78,3.54,9.54H118.8ZM152.79-6l-3-10.02h-4.32l-3,9.93h-.03l-2.88-9.93h-4.8L139.74,0h4.53l3.3-10.23h.03L150.87,0h4.59l5.04-16.02h-4.68ZM167.43.3a5.494,5.494,0,0,0,4.8-2.31l.06.03V0h4.32V-9.93c0-4.2-2.73-6.45-6.96-6.45-3.51,0-5.97,1.26-7.35,3.81l3.57,2.13a3.854,3.854,0,0,1,3.57-2.16c1.68,0,2.58.87,2.58,1.98q0,1.17-1.26,1.17h-1.59a10.772,10.772,0,0,0-4.77.96,4.174,4.174,0,0,0-2.37,3.96v.06a4.292,4.292,0,0,0,1.56,3.48A5.828,5.828,0,0,0,167.43.3Zm1.35-3.42c-1.2,0-2.04-.54-2.04-1.62,0-1.2,1.08-1.83,2.43-1.83h2.82v.36A2.977,2.977,0,0,1,168.78-3.12Zm22.38-12.96a2.691,2.691,0,0,0-.93-.12,4.947,4.947,0,0,0-4.53,2.64h-.03v-2.46h-4.65V0h4.68V-6.78c0-2.88,1.32-4.77,4.35-4.77a6.653,6.653,0,0,1,1.11.09ZM205.35,0h4.53V-24.42h-4.65v10.23h-.06a5.984,5.984,0,0,0-4.8-2.13,6.935,6.935,0,0,0-5.49,2.55,8.464,8.464,0,0,0-2.19,5.73,8.807,8.807,0,0,0,2.13,5.88A6.87,6.87,0,0,0,200.31.3a5.6,5.6,0,0,0,4.98-2.34h.06Zm0-8.04a4.122,4.122,0,0,1-1.14,2.97,3.87,3.87,0,0,1-2.82,1.14,3.87,3.87,0,0,1-2.82-1.14,4.122,4.122,0,0,1-1.14-2.97,3.887,3.887,0,0,1,3.96-4.05A3.887,3.887,0,0,1,205.35-8.04Zm21.18,3.21c0-2.79-2.13-4.38-6.18-5.22-1.41-.3-2.1-.78-2.1-1.47,0-.63.72-1.17,1.68-1.17a3.108,3.108,0,0,1,2.91,1.53l3.39-2.01c-1.05-1.95-3.21-3.24-6.18-3.24a6.843,6.843,0,0,0-4.35,1.44,4.408,4.408,0,0,0-1.8,3.63c0,2.61,1.89,4.35,5.7,5.19,2.04.45,2.55.93,2.55,1.56s-.78,1.17-1.95,1.17a3.688,3.688,0,0,1-3.6-1.95l-3.45,2.04c1.29,2.46,3.63,3.69,6.99,3.69C224.1.36,226.53-1.74,226.53-4.83Z" transform="translate(231 103.45)" fill="url(#linear-gradient-3)"/>
  </g>
</svg>
