<svg id="freepik-logo-" xmlns="http://www.w3.org/2000/svg" width="35.932" height="31.144" viewBox="0 0 35.932 31.144">
  <path id="Path_94879" data-name="Path 94879" d="M187.366,38.913a19.135,19.135,0,0,1,4.011-.935,26.735,26.735,0,0,1,2.756-.181,11.428,11.428,0,0,1,1.98.171L196.3,36.8a12.157,12.157,0,0,0-4.144-.358l-.185-.634a1.615,1.615,0,1,0-.673,0l.205.706a16.458,16.458,0,0,0-4.487,1.321Z" transform="translate(-173.288 -32.616)" fill="#ededed"/>
  <path id="Path_94880" data-name="Path 94880" d="M6.991,169.427c.058-.074.116-.145.173-.215l-.476-.347-.747-.546A11.027,11.027,0,0,0,3.8,171.453a1.353,1.353,0,0,0-.138-.182,1.454,1.454,0,0,0-1.158-.45H2.481a.953.953,0,0,1-.654-.226,1.031,1.031,0,1,0-.551.359,1.567,1.567,0,0,0,1.237.513.833.833,0,0,1,.668.236,1.118,1.118,0,0,1,.244.654l0,.008a11.073,11.073,0,0,0-.476,4.082l1.615.064a12.212,12.212,0,0,1,.568-3.411,15.921,15.921,0,0,1,1.854-3.66Z" transform="translate(0 -158.36)" fill="#ededed"/>
  <path id="Path_94881" data-name="Path 94881" d="M399.417,121.629a1.019,1.019,0,0,0-.99,1.277,1.574,1.574,0,0,0-.513,1.236.834.834,0,0,1-.236.668.965.965,0,0,1-.451.214,12.535,12.535,0,0,0-2.686-2.713l-1.16,1.244a18.2,18.2,0,0,1,2.644,3.044,21.388,21.388,0,0,1,1.736,3.078l1.566-.741a23.725,23.725,0,0,0-1.722-3.351,1.488,1.488,0,0,0,.505-.295,1.457,1.457,0,0,0,.45-1.158.96.96,0,0,1,.226-.676,1.022,1.022,0,1,0,.631-1.827Z" transform="translate(-364.508 -115.096)" fill="#ededed"/>
  <path id="Path_94882" data-name="Path 94882" d="M107.579,292.867a34.805,34.805,0,0,1-10.367,3.085,38.139,38.139,0,0,1-5.241.35,43.852,43.852,0,0,1-5.437-.343,36.8,36.8,0,0,1-3.709-.638h-.014a13.622,13.622,0,0,0,.688,1.762s0,.007,0,.01l.019.042c.033.069.066.137.1.205s.065.129.1.193l.026.05a11.5,11.5,0,0,0,1.652,2.367,8.62,8.62,0,0,0,4.465,2.791l.035.005.033.011a17.794,17.794,0,0,0,5.033.65,22.049,22.049,0,0,0,8.673-1.782,14.112,14.112,0,0,0,4.972-4.084,11.359,11.359,0,0,0,1.608-3.507,9.169,9.169,0,0,0,.226-2.788A24.852,24.852,0,0,1,107.579,292.867Z" transform="translate(-76.733 -272.264)" fill="#ededed"/>
  <path id="Path_94883" data-name="Path 94883" d="M88.864,131.315a33.517,33.517,0,0,0,9.935-2.948,21.767,21.767,0,0,0,3.242-1.894,21.231,21.231,0,0,0-2.668-5.574c-3.064-4.38-6.368-5.5-8.066-5.785a10.625,10.625,0,0,0-1.9-.169,25.99,25.99,0,0,0-2.665.176,18.386,18.386,0,0,0-3.871.91,14.944,14.944,0,0,0-5.392,3.132l-.049.046a10.534,10.534,0,0,0-1.193,1.287,15.679,15.679,0,0,0-1.726,3.442,12.725,12.725,0,0,0-.518,3.762v.006a13.959,13.959,0,0,0,.076,1.547c0,.008-.013.016-.012.025a1.688,1.688,0,0,1,.009.191h0c.073.361.114.726.187,1.081l.007.006h0A40.632,40.632,0,0,0,88.864,131.315Zm6.13-11.84a2.664,2.664,0,1,1-2.664,2.664A2.665,2.665,0,0,1,94.994,119.475Zm-12.6-.108a4.306,4.306,0,1,1-4.306,4.306A4.306,4.306,0,0,1,82.4,119.367Zm-8.307,10.117q.069.521.177,1.05Q74.156,130.006,74.088,129.485Z" transform="translate(-68.563 -108.901)" fill="#ededed"/>
</svg>
