<svg id="google" xmlns="http://www.w3.org/2000/svg" width="36.16" height="36.16" viewBox="0 0 36.16 36.16">
  <path id="Path_94128" data-name="Path 94128" d="M283.06,211.48H268.31a1.179,1.179,0,0,0-1.179,1.179v4.712a1.179,1.179,0,0,0,1.179,1.179h8.306a11.088,11.088,0,0,1-4.773,5.593l3.542,6.131a17.728,17.728,0,0,0,9.04-15.5,11.95,11.95,0,0,0-.2-2.315A1.184,1.184,0,0,0,283.06,211.48Z" transform="translate(-248.265 -196.543)" fill="#ededed"/>
  <path id="Path_94129" data-name="Path 94129" d="M50.061,339.354a11,11,0,0,1-9.519-5.507l-6.131,3.534a18.066,18.066,0,0,0,24.69,6.627V344l-3.542-6.131A10.923,10.923,0,0,1,50.061,339.354Z" transform="translate(-31.981 -310.269)" fill="#ededed"/>
  <path id="Path_94130" data-name="Path 94130" d="M265.04,396.918v-.008l-3.542-6.131a10.923,10.923,0,0,1-5.5,1.486v7.075A18.049,18.049,0,0,0,265.04,396.918Z" transform="translate(-237.92 -363.18)" fill="#ededed"/>
  <path id="Path_94131" data-name="Path 94131" d="M7.075,137.151a10.923,10.923,0,0,1,1.486-5.5L2.43,128.119a18,18,0,0,0,0,18.063l6.131-3.534A10.923,10.923,0,0,1,7.075,137.151Z" transform="translate(0 -119.071)" fill="#ededed"/>
  <path id="Path_94132" data-name="Path 94132" d="M50.061,7.075a10.955,10.955,0,0,1,6.987,2.509,1.175,1.175,0,0,0,1.581-.071l3.338-3.338A1.188,1.188,0,0,0,61.9,4.436,18.041,18.041,0,0,0,34.411,9.048l6.131,3.534A11,11,0,0,1,50.061,7.075Z" transform="translate(-31.981)" fill="#ededed"/>
  <path id="Path_94133" data-name="Path 94133" d="M262.987,9.583a1.175,1.175,0,0,0,1.581-.071l3.338-3.338a1.188,1.188,0,0,0-.068-1.738A18.025,18.025,0,0,0,256,0V7.075A10.955,10.955,0,0,1,262.987,9.583Z" transform="translate(-237.92)" fill="#ededed"/>
</svg>
